<svg xmlns="http://www.w3.org/2000/svg" xmlns:xlink="http://www.w3.org/1999/xlink" id="Grupo_11" data-name="Grupo 11" width="93.67" height="60" viewBox="0 0 93.67 60"><defs><clipPath id="clip-path"><rect id="Rect&#xE1;ngulo_22" data-name="Rect&#xE1;ngulo 22" width="93.67" height="60" fill="none"></rect></clipPath></defs><g id="Grupo_10" data-name="Grupo 10" clip-path="url(#clip-path)"><path id="Trazado_13" data-name="Trazado 13" d="M17.361,0h17a10.192,10.192,0,0,1,6.39,4.649c2.057,3.089,4.246,6.09,6.363,9.139a1.658,1.658,0,0,0,1.332.788,12.563,12.563,0,0,1,6.543,2.563c.356.271.707.549,1.073.833.263-.35.15-.7.151-1.013.009-3.8,0-7.605.007-11.408,0-2.016.651-2.674,2.674-2.679q4.614-.012,9.227,0A10.376,10.376,0,0,1,78.642,10.9c1.118,3.98,2.227,7.964,3.355,11.941.654,2.306.333,1.878,2.445,1.941,4.706.141,8.99,3.96,9.138,8.455.164,4.984.056,9.976.039,14.965A1.8,1.8,0,0,1,91.893,50.1a10.22,10.22,0,0,1-1.455.1c-2.132.011-4.263.017-6.4,0-.659,0-.958.206-1.045.925a9.951,9.951,0,0,1-19.753.276c-.141-1.039-.546-1.217-1.451-1.212-5.451.029-10.9.018-16.353.009a10.451,10.451,0,0,1-1.726-.125A1.811,1.811,0,0,1,42.158,48.3a1.862,1.862,0,0,1,1.489-1.922,5.133,5.133,0,0,1,1.089-.076c3.472-.005,6.943-.02,10.415.009.777.006,1.1-.231,1.076-1.044-.044-1.733-.013-3.468-.013-5.2,0-1.55,0-1.553-1.573-1.553H18.463c-4.538,0-9.075.012-13.613-.009-.8,0-1.16.237-1.139,1.1.047,1.915.035,3.833,0,5.749-.011.718.271.968.973.957,1.766-.029,3.534-.051,5.3.009a1.68,1.68,0,0,0,1.779-1.038,9.9,9.9,0,0,1,11.882-4.663A9.946,9.946,0,0,1,20.476,60,9.932,9.932,0,0,1,10.6,51.357c-.13-.986-.521-1.186-1.39-1.172-2.222.038-4.446.011-6.669.006A2.559,2.559,0,0,1,0,48.922V35.779a2.6,2.6,0,0,1,2.5-1.171c1.093.05,2.19.033,3.284,0,.333-.011.939.263.926-.364A1.1,1.1,0,0,0,5.9,33.061a4,4,0,0,0-.633-.082A5.41,5.41,0,0,1,0,28.842V19.35A6.454,6.454,0,0,1,4.354,14.8a2.272,2.272,0,0,0,1.433-1.135c1.634-2.813,3.361-5.575,4.923-8.427A9.871,9.871,0,0,1,17.361,0m9.595,18.326q-10.094,0-20.189,0c-2.064,0-3.02.968-3.036,3.027q-.023,2.829,0,5.658A3.69,3.69,0,0,0,3.9,28.087c.251.787.895.986,1.643,1.058.731.07.907-.415,1.132-.942a7.387,7.387,0,0,1,13.685.137,1.134,1.134,0,0,0,1.231.811q8.359-.028,16.718,0a1.182,1.182,0,0,0,1.287-.864,7.394,7.394,0,0,1,13.694-.036c.4.936.734,1.074,1.683.71a1.781,1.781,0,0,0,1.181-1.874,8.827,8.827,0,0,0-2.938-6.368A9.419,9.419,0,0,0,46.6,18.327q-9.82-.006-19.641,0m33.056,4.553q0,7.526,0,15.052c0,.606.04,1.074.849,1.072q10.228-.022,20.456,0c.632,0,.869-.265.858-.879-.021-1.185-.018-2.372,0-3.557a1.925,1.925,0,0,1,2.155-2.133c1.339-.019,2.679,0,4.018-.014.315,0,.733.172.923-.184.179-.335-.128-.631-.3-.9a5.293,5.293,0,0,0-4.63-2.621c-5.144-.016-10.289.006-15.433-.019-3-.015-4.918-1.632-5.073-4.591a86.156,86.156,0,0,1,.01-9.389C64,11.776,65.91,10.2,68.86,10.175c1.461-.013,2.922,0,4.383-.009.258,0,.6.1.726-.224.1-.254-.127-.452-.273-.641a5.9,5.9,0,0,0-4.672-2.48c-2.555-.062-5.113-.027-7.67-.028-1.336,0-1.342.007-1.342,1.307q0,7.389,0,14.778M17.142,14.532c2.161,0,4.322-.016,6.483.01.692.008.99-.217.984-.944-.025-2.98-.02-5.96,0-8.939,0-.641-.2-.957-.889-.943-1.461.028-2.923-.018-4.383.017A5.375,5.375,0,0,0,14.5,6.475c-1.425,2.442-2.852,4.884-4.305,7.311-.387.646-.17.76.468.754,2.161-.019,4.322-.007,6.483-.008m18.5,0c2.129,0,4.258,0,6.386,0,.4,0,.933.055.465-.608-1.962-2.78-3.905-5.574-5.909-8.324a4.542,4.542,0,0,0-3.1-1.74,38.511,38.511,0,0,0-4.1-.143c-.764-.042-1.008.277-1,1.017q.041,4.374,0,8.749c-.009.784.246,1.082,1.05,1.066,2.067-.04,4.136-.014,6.2-.014M20.5,56.15A6.175,6.175,0,0,0,26.559,50a6.093,6.093,0,0,0-12.185.064A6.163,6.163,0,0,0,20.5,56.15M73.1,44.016A6.036,6.036,0,0,0,67,50.069a6.094,6.094,0,0,0,12.187.014A6.036,6.036,0,0,0,73.1,44.016m.042-19.241c1.49,0,2.981-.021,4.471.009.685.014.855-.228.671-.873q-1.278-4.466-2.511-8.945a1.026,1.026,0,0,0-1.159-.881c-1.916.031-3.832.028-5.748,0-.846-.01-1.212.33-1.2,1.193q.036,4.147,0,8.294c-.007.849.333,1.222,1.192,1.205,1.429-.028,2.859-.008,4.288-.007M16.989,31.081a3.381,3.381,0,0,0-3.5-3.51A3.51,3.51,0,0,0,9.943,31a3.64,3.64,0,0,0,3.508,3.613,3.516,3.516,0,0,0,3.538-3.529m25.963-.049a3.513,3.513,0,0,0,3.488,3.578A3.636,3.636,0,0,0,50,31.046,3.511,3.511,0,0,0,46.5,27.57a3.383,3.383,0,0,0-3.551,3.461M29.978,34.619c3.009,0,6.019-.012,9.028.009.676,0,.865-.131.577-.827a1.236,1.236,0,0,0-1.369-.78q-8.253.011-16.505.006a2.831,2.831,0,0,0-.635.046,1.179,1.179,0,0,0-.838,1.265c0,.488.581.267.9.269,2.948.02,5.9.012,8.845.012M80,42.8a11.686,11.686,0,0,1,1.988,2.794,1.135,1.135,0,0,0,1.221.72c1.367-.028,2.735.01,4.1-.012,2.954-.047,2.482.512,2.536-2.652.011-.637-.277-.859-.882-.854-1.671.015-3.342,0-5.013,0H80M66.2,42.8c-1.987,0-3.74,0-5.494,0a.551.551,0,0,0-.349.072c-.688.683-.224,1.545-.328,2.321-.05.367-.142.943.342,1.017a10.738,10.738,0,0,0,3.345-.015c.139-.023.287-.227.361-.381A13.438,13.438,0,0,1,66.2,42.8M87.818,39c2.166,0,2.152,0,2.027-1.987-.033-.53-.234-.786-.769-.782-.791.007-1.582,0-2.373,0a.64.64,0,0,0-.732.525c-.4,1.721,0,2.241,1.756,2.241h.091M54.625,34.619V34.6a5.638,5.638,0,0,0,1.085-.012c.7-.14.47-.735.5-1.183.019-.332-.077-.618-.505-.57-.54.06-1.082.11-1.617.2a1.111,1.111,0,0,0-.859,1.232c0,.586.608.271.948.346a2.153,2.153,0,0,0,.452.005" fill="#fff"></path><path id="Trazado_14" data-name="Trazado 14" d="M232.521,310.553a1.839,1.839,0,0,1-1.846,1.862,1.9,1.9,0,0,1-1.938-1.887,1.95,1.95,0,0,1,1.962-1.885,1.9,1.9,0,0,1,1.823,1.91" transform="translate(-194.405 -262.318)" fill="#fff"></path><path id="Trazado_15" data-name="Trazado 15" d="M142.7,149.222c-.911,0-1.823.027-2.733-.006a1.884,1.884,0,1,1,.007-3.768q2.732-.055,5.466,0a1.884,1.884,0,1,1-.007,3.767c-.91.034-1.822.007-2.733.007" transform="translate(-117.334 -123.594)" fill="#fff"></path><path id="Trazado_16" data-name="Trazado 16" d="M223.644,149.37a1.9,1.9,0,0,1-1.937-1.885,1.9,1.9,0,0,1,3.8.02,1.9,1.9,0,0,1-1.866,1.865" transform="translate(-188.43 -123.753)" fill="#fff"></path></g></svg>