<svg xmlns="http://www.w3.org/2000/svg" xmlns:xlink="http://www.w3.org/1999/xlink" id="Grupo_9" data-name="Grupo 9" width="88.723" height="89.101" viewBox="0 0 88.723 89.101"><defs><clipPath id="clip-path"><rect id="Rect&#xE1;ngulo_21" data-name="Rect&#xE1;ngulo 21" width="88.723" height="89.101" fill="none"></rect></clipPath></defs><g id="Grupo_8" data-name="Grupo 8" clip-path="url(#clip-path)"><path id="Trazado_8" data-name="Trazado 8" d="M87.04,54.1Q85.113,48.9,83.185,43.711c-.96-2.583-2.616-3.338-5.211-2.377L76.73,41.8q-.829.309-1.659.616a3.434,3.434,0,0,0-2.392,2.935.841.841,0,0,1-.068.278.617.617,0,0,1-.289-.06l-.358-.133c-.229-.086-.465-.175-.7-.254a.516.516,0,0,1-.423-.6c.011-.239.007-.476,0-.7,0-.116,0-.232,0-.348V35.378q0-13.234,0-26.468a8.5,8.5,0,0,0-3.357-7.259A7.811,7.811,0,0,0,62.661.006q-6.437,0-12.874,0C38.514,0,26.857-.005,15.392.024a7.852,7.852,0,0,0-7.416,4.93,1.166,1.166,0,0,1-1.043.806A8.31,8.31,0,0,0,.014,13.823c-.01.231-.01.461-.01.683V31.614q0,24.305,0,48.611A8.52,8.52,0,0,0,3.988,87.96,10,10,0,0,0,6.462,89l.311.1H56.832l.052-.013a8.518,8.518,0,0,0,6.189-5.31c.066-.169.15-.258.447-.309a8.323,8.323,0,0,0,7.314-8.6c0-.087.006-.175.011-.263a3.079,3.079,0,0,0-.026-.771,4.69,4.69,0,0,1,.534-2.736c.13-.318.265-.646.377-.982l0-.009a.645.645,0,0,1,.138-.013,4.273,4.273,0,0,0,4.361-3.248c.057-.181.125-.267.38-.3a3.775,3.775,0,0,0,3.395-2.837c.013-.043.025-.077.035-.1.019.009.042.02.069.035a3.219,3.219,0,0,0,2.774.128c1.19-.432,2.36-.872,3.553-1.322a3.688,3.688,0,0,0,2.268-2.594l.017-.059V58.629Zm-1.851,4.995c0,.113-.037.154-.212.22l-1.756.66-1.3.488a.385.385,0,0,1-.241.037c-.1-.045-.211-.352-.249-.453Q80.311,57,79.18,53.968l-.945-2.543q-.289-.778-.575-1.556c-.435-1.182-.885-2.4-1.345-3.6a.763.763,0,0,1-.074-.517.689.689,0,0,1,.387-.241c.813-.27,1.665-.587,2.682-1a.921.921,0,0,1,.315-.079.186.186,0,0,1,.075.013.519.519,0,0,1,.187.287q1.739,4.7,3.484,9.407l1.738,4.69c.032.085.056.173.075.239l.006.022m-19.772.064a1.679,1.679,0,0,0,.658,2.291c.81.481,1.65.935,2.462,1.374q.432.234.864.469.519.284,1.042.564c.552.3,1.123.6,1.676.915.322.181,1.031.68.665,1.411a.757.757,0,0,1-.446.408,1.428,1.428,0,0,1-1.055-.189c-1.3-.686-2.624-1.4-3.9-2.082l-1.865-1-.11-.059a6.6,6.6,0,0,0-.621-.307,1.7,1.7,0,0,0-2.245.723,1.639,1.639,0,0,0,.67,2.284c.891.516,1.811,1.007,2.7,1.482q.583.311,1.164.625l.205.109a5.475,5.475,0,0,1,.51.291.92.92,0,0,1,.447,1.212.9.9,0,0,1-1.289.336c-.52-.251-1.042-.531-1.547-.8-.566-.3-1.15-.616-1.745-.9a7.307,7.307,0,0,1-.687-.39,3.709,3.709,0,0,0-1.935-.727,2.384,2.384,0,0,0-.742.121l-.034-.058c-.027-.048-.054-.094-.081-.135a4.227,4.227,0,0,0-3.226-1.966.619.619,0,0,1-.6-.46,4.032,4.032,0,0,0-3.54-2.535c-.243-.019-.37-.082-.533-.421a4.154,4.154,0,0,0-4.751-2.6,1.8,1.8,0,0,1-.2.016c.011-.048.028-.113.057-.2q1.225-3.778,2.441-7.559l.969-3c.124-.384.186-.388.281-.394a21.987,21.987,0,0,0,2.56-.356,21.47,21.47,0,0,1,3.093-.4l.253.021c.292.023.692.055,1.073.117l.1.015.094.014-.012.01c-.051.043-.1.085-.145.129q-.6.6-1.206,1.2-.652.644-1.3,1.29c-.486.487-.868.889-1.2,1.266a3.794,3.794,0,0,0-1.32,2.584c.063.84.715,1.545,1.676,2.345a6.291,6.291,0,0,0,6.074,1.1c1.056-.3,2.188-.68,3.459-1.16a3.841,3.841,0,0,1,3.7.253c1.228.756,2.538,1.406,3.805,2.034.638.316,1.3.643,1.934.978a12.642,12.642,0,0,1,2.422,1.611,1.561,1.561,0,0,1,.609.874c.095.523.034.822-.21,1.032-.151.13-.26.111-.684-.121l-.1-.056q-2.464-1.319-4.923-2.647l-2.447-1.319c-.226-.123-.459-.251-.707-.357a1.7,1.7,0,0,0-2.258.7M60.106,80.124c0,.2,0,.4,0,.6a4.834,4.834,0,0,1-5.053,5.042c-1.77.008-3.569.007-5.31,0H37.224q-14.287,0-28.573,0a4.895,4.895,0,0,1-5.03-3.781,5.907,5.907,0,0,1-.1-1.453c0-.11,0-.221,0-.331q0-13.507,0-27.015V47.393q0-5.38,0-10.761,0-11.28.005-22.559A4.751,4.751,0,0,1,7.389,9.165a5.94,5.94,0,0,1,1.194-.087q13-.008,26,0a3.528,3.528,0,0,1,.679.038,3.655,3.655,0,0,1,.041.714q0,3.617,0,7.234v3.962a2.147,2.147,0,0,0,.956,2.188,2.473,2.473,0,0,0,2.7-.325c.745-.507,1.507-1.017,2.245-1.51,1.187-.793,2.415-1.614,3.605-2.451a.779.779,0,0,1,1.108.023c1.312.917,2.661,1.823,3.967,2.7q.835.56,1.668,1.122a1.947,1.947,0,0,0,2.2.333,2.086,2.086,0,0,0,.923-2.018q-.006-5.639,0-11.278a3.5,3.5,0,0,1,.042-.7,3.437,3.437,0,0,1,.682-.029,4.7,4.7,0,0,1,4.679,4.586c.029,7.937.026,16.008.022,23.813q0,3.332,0,6.664c0,.038,0,.077,0,.117s0,.091,0,.141l-.021-.008a11.046,11.046,0,0,0-6.515-.257c-.234.049-.469.093-.7.136-.215.04-.43.079-.645.123-.766.157-1.115.023-1.385-.53a2.825,2.825,0,0,0-1.808-1.375l-.848-.278c-.9-.3-1.839-.6-2.77-.878a3.364,3.364,0,0,0-4.406,2.311c-1.732,5.3-3.29,10.117-4.763,14.742a3.41,3.41,0,0,0,2.4,4.646c.351.114.7.234,1.051.355a21.338,21.338,0,0,0,3.279.936l-.007.015c-.021.045-.042.09-.06.134a4.263,4.263,0,0,0,.177,3.854,3.954,3.954,0,0,0,2.68,2.023c.278.065.334.132.372.447a4.112,4.112,0,0,0,5.083,3.71.655.655,0,0,1,.776.245,4.061,4.061,0,0,0,3.676,1.454.532.532,0,0,1,.636.307A4.309,4.309,0,0,0,59.659,78.6c.412.038.476.116.456.555-.015.326-.012.652-.008.968M46.1,65.916A22.966,22.966,0,0,1,47.774,62.8a.67.67,0,0,1,.407-.321.482.482,0,0,1,.1-.011.707.707,0,0,1,.388.135c.606.4.542.745.382,1.054-.459.889-.96,1.824-1.576,2.943A.711.711,0,0,1,46.8,67h0a.761.761,0,0,1-.667-.317.787.787,0,0,1-.026-.765m3.5,4.169c.685-1.431,1.466-2.834,2.208-4.137a.656.656,0,0,1,.937-.293.674.674,0,0,1,.432.93A29.057,29.057,0,0,1,50.872,70.9a.583.583,0,0,1-.527.225H50.33a.789.789,0,0,1-.694-.358.682.682,0,0,1-.033-.685m5.207,2.55a.545.545,0,0,1-.332-.654,8.3,8.3,0,0,1,1.679-3.214.424.424,0,0,1,.349-.149,1.233,1.233,0,0,1,.483.124c.172.083.34.215.342.806A9.99,9.99,0,0,1,55.6,72.638c-.225.247-.7.04-.79,0M47.89,46.123c-1.6,4.945-3.167,9.8-4.617,14.314-.1.3-.138.38-.493.315-.266-.087-.544-.176-.831-.268-.756-.242-1.538-.492-2.318-.78-.122-.045-.163-.06,0-.57q1.037-3.232,2.078-6.462.357-1.108.719-2.214c.567-1.74,1.153-3.539,1.7-5.319.106-.346.206-.438.256-.462s.177-.045.5.079c.718.275,1.459.508,2.176.734l.619.2c.194.062.237.122.246.139s.034.093-.033.3m3.3-30.826q0,1.4,0,2.791c0,.059,0,.121.007.185,0,.031,0,.072.005.11l-.067-.054a2.281,2.281,0,0,0-.184-.141l-.473-.315c-1.228-.817-2.5-1.662-3.724-2.522a2.212,2.212,0,0,0-2.781-.011c-1.35.946-2.749,1.875-4.1,2.773l-.884.588a2.075,2.075,0,0,0-.173.133v0c.007-.074.013-.148.013-.216q0-1.565,0-3.13c0-1.908,0-3.882-.017-5.823a.791.791,0,0,1,.1-.5c.046-.046.164-.1.465-.1h.057c1.334.028,2.688.022,4,.017q1.6-.006,3.2,0c1.285.006,2.613.013,3.922-.02a.8.8,0,0,1,.533.107.879.879,0,0,1,.118.572c-.019,1.854-.017,3.738-.015,5.56M67.3,43.849a5.661,5.661,0,0,1-.616-.051,7.293,7.293,0,0,0-2.808.237,1.144,1.144,0,0,1-.246.048,1.246,1.246,0,0,1-.019-.266c.015-1.7.012-3.426.01-5.1q0-.983,0-1.966,0-3.332,0-6.664c0-5.208,0-10.592-.008-15.889A8.376,8.376,0,0,0,57.007,5.8a12.939,12.939,0,0,0-2.73-.233h-.013c-16.39.006-29.737,0-42-.005h0a3.113,3.113,0,0,0-.386.032,1.631,1.631,0,0,1-.4.02c-.023-.091.2-.3.347-.44.077-.073.153-.144.218-.214a4.889,4.889,0,0,1,3.773-1.552h0q8.715,0,17.43,0H45.773q8.259,0,16.517,0A4.847,4.847,0,0,1,67.229,7.28a5.836,5.836,0,0,1,.09,1.191q.008,17.387,0,34.773a5.9,5.9,0,0,1-.018.6M59.587,75.01c-.606-.42-.618-.744-.56-.979a3.142,3.142,0,0,1,.919-1.618.855.855,0,0,1,.571-.253.8.8,0,0,1,.373.1.568.568,0,0,1,.383.64,5.318,5.318,0,0,1-1.2,2.15c-.157.158-.391.025-.485-.04m5.081-22.538a19.718,19.718,0,0,0-2.555.815c-.56.207-1.139.422-1.715.592a3.683,3.683,0,0,1-3.072-.018,1.161,1.161,0,0,1-.352-.26.86.86,0,0,1,.216-.271c.524-.5,1.04-1.028,1.539-1.536a34.243,34.243,0,0,1,3.278-3.059,6.172,6.172,0,0,1,6.449-.964c.316.122.638.256.949.385a10.145,10.145,0,0,0,4.223,1.065c.034,0,.1,0,.192.246q1.244,3.338,2.485,6.678l.32.861c-1.251-.714-2.537-1.341-3.79-1.952-1.366-.666-2.779-1.355-4.1-2.137a4.631,4.631,0,0,0-2.428-.642,7.551,7.551,0,0,0-1.638.2M63.631,77.157a.848.848,0,0,1,.01-.137l.035.005A3.7,3.7,0,0,0,67.212,76a4.627,4.627,0,0,1-3.129,3.836,3.052,3.052,0,0,1-.432.123,2.838,2.838,0,0,1-.025-.4c-.008-.831,0-1.7.005-2.4" transform="translate(0 0)" fill="#fff"></path><path id="Trazado_9" data-name="Trazado 9" d="M73.121,181.026c.095,0,.189,0,.284,0h34.426a2.643,2.643,0,0,0,1.937-.61,1.553,1.553,0,0,0,.429-1.145c-.022-1.364-1.284-1.651-2.339-1.651q-7.251,0-14.5,0h-7.75q-6.224,0-12.447,0c-1.263,0-2.054.641-2.064,1.67s.785,1.7,2.025,1.731" transform="translate(-58.829 -146.974)" fill="#fff"></path><path id="Trazado_10" data-name="Trazado 10" d="M72.823,297.146a5.925,5.925,0,0,0,.775.032H90.527a3.1,3.1,0,0,0,1.156-.149,1.668,1.668,0,0,0,1.164-1.653,1.6,1.6,0,0,0-1.185-1.554,4.025,4.025,0,0,0-1.137-.152c-5.87-.008-11.8-.005-17.033,0a4.354,4.354,0,0,0-.76.05,1.674,1.674,0,0,0-1.571,1.758,1.7,1.7,0,0,0,1.663,1.673" transform="translate(-58.882 -242.995)" fill="#fff"></path><path id="Trazado_11" data-name="Trazado 11" d="M90.6,235.617h-.158q-3.3,0-6.594,0H80.176q-3.291,0-6.583,0c-.058,0-.116,0-.174,0a3.692,3.692,0,0,0-.861.059,1.632,1.632,0,0,0-1.388,1.712,1.608,1.608,0,0,0,1.4,1.605,7.972,7.972,0,0,0,1.355.107c2.646,0,5.328,0,8.029,0s5.419,0,8.136,0a7.682,7.682,0,0,0,1.358-.105,1.6,1.6,0,0,0,1.409-1.7,1.658,1.658,0,0,0-1.472-1.636,4.048,4.048,0,0,0-.776-.044" transform="translate(-58.89 -194.963)" fill="#fff"></path><path id="Trazado_12" data-name="Trazado 12" d="M90.5,352.28q-8.465,0-16.93,0h-.143a5.189,5.189,0,0,0-.775.034,1.676,1.676,0,0,0-.158,3.3,3.586,3.586,0,0,0,.9.072h.138q3.287,0,6.574,0H90.464c1.954,0,2.387-.919,2.406-1.689a1.491,1.491,0,0,0-.406-1.123,2.654,2.654,0,0,0-1.967-.6" transform="translate(-58.894 -291.497)" fill="#fff"></path></g></svg>