<svg xmlns="http://www.w3.org/2000/svg" xmlns:xlink="http://www.w3.org/1999/xlink" id="Grupo_13" data-name="Grupo 13" width="83.008" height="83" viewBox="0 0 83.008 83"><defs><clipPath id="clip-path"><rect id="Rect&#xE1;ngulo_23" data-name="Rect&#xE1;ngulo 23" width="83.008" height="83" fill="none"></rect></clipPath></defs><g id="Grupo_12" data-name="Grupo 12" clip-path="url(#clip-path)"><path id="Trazado_17" data-name="Trazado 17" d="M67.549,83a43.573,43.573,0,0,1-5.069-.607,16.913,16.913,0,0,1-6.329-2.588c-3.278-2.37-3.546-4.589-2.879-8.422a4.083,4.083,0,0,1,2.251-2.8,1.242,1.242,0,0,0,.758-1.242c.009-2.6.027-2.6-2.581-2.6-2.1,0-4.2.018-6.3-.01-.623-.008-.844.209-.828.828.032,1.231.02,2.464,0,3.7A1.894,1.894,0,0,1,44.543,71.4c-.251.017-.5.01-.756.01q-20.5,0-40.992,0a7.4,7.4,0,0,1-1.171-.065A1.673,1.673,0,0,1,.1,69.8a9.762,9.762,0,0,1-.082-1.254Q.008,38.977,0,9.409C0,5.867,1.183,3.016,4.305,1.135A9,9,0,0,1,9.069.014q20.916-.02,41.832,0C55.359.024,58.692,2.6,59.589,6.6a10.639,10.639,0,0,1,.246,2.333q0,5.964,0,11.928c0,1.977-.567,2.532-2.564,2.532-3.248,0-6.5.02-9.744-.014-.741-.008-.958.231-.957.963q.031,13.86,0,27.72c0,.715.182.988.941.976,2.631-.04,5.264-.032,7.9,0,.662.007.934-.221.866-.875a3.043,3.043,0,0,1,0-.671,2.431,2.431,0,0,0-1.295-2.748c-1.342-.782-1.8-2.217-1.968-3.794-.431-4.051,1.579-6.514,5.024-8.12a15.909,15.909,0,0,1,1.864-.761,25.45,25.45,0,0,1,17.109.352,11.568,11.568,0,0,1,1.37.637c2.429,1.293,4.31,3.019,4.63,5.955v2.016a5.39,5.39,0,0,1-2.983,4.382c-.335.167-.345.481-.345.795q0,8.691,0,17.381a.741.741,0,0,0,.374.776,5.288,5.288,0,0,1,2.954,4.39v2.016c-.314,2.745-2.028,4.453-4.288,5.735a19.523,19.523,0,0,1-6.007,2.042c-1.43.278-2.886.271-4.324.455ZM3.568,37.508q0,14.572,0,29.145c0,1.193,0,1.2,1.206,1.2q18.184,0,36.368,0c2.1,0,1.869.275,1.88-1.879.007-1.22,0-1.221-1.269-1.221q-14.614,0-29.229,0A5.877,5.877,0,0,1,10.955,53.2a10.068,10.068,0,0,1,2.747-.262q13.942-.009,27.885,0c1.437,0,1.438,0,1.438-1.422Q43.016,30.43,43.01,9.349a9.938,9.938,0,0,1,1.021-4.873c.494-.908.491-.914-.538-.914q-17.386,0-34.772,0A5.526,5.526,0,0,0,7.3,3.675,4.791,4.791,0,0,0,3.572,8.531q-.012,14.488,0,28.977M59.835,58.8c0,2.657.023,5.315-.014,7.971-.011.772.178,1.083,1.022,1.077q7.132-.054,14.265,0c.761,0,1.024-.216,1.02-1q-.04-7.972,0-15.944c0-.782-.272-1-1.026-1q-7.133.039-14.265,0c-.764,0-1.027.233-1.016,1.007.038,2.629.014,5.258.014,7.888M34.029,61.266h.084c7.053,0,14.106-.009,21.159.02.785,0,1.04-.243.991-1.007-.055-.864-.012-1.734-.013-2.6,0-1.183,0-1.185-1.209-1.185l-41.982.013c-.224,0-.449-.009-.671.009a2.356,2.356,0,0,0-2.009,3.238,2.536,2.536,0,0,0,2.574,1.517q10.538-.013,21.075,0M67.978,46.323q4.867,0,9.735,0a1.519,1.519,0,0,0,1.705-1.261A3.84,3.84,0,0,0,77.189,40.4a15.01,15.01,0,0,0-2.131-.978,21.936,21.936,0,0,0-9.434-1.013,17.066,17.066,0,0,0-6.585,1.822c-1.765.922-2.838,2.177-2.56,4.341.157,1.224.574,1.751,1.848,1.753q4.825.008,9.651,0m-.01,25.1h-.756c-3,0-5.992,0-8.988.006a1.53,1.53,0,0,0-1.69,1.19,3.834,3.834,0,0,0,1.9,4.517A11.4,11.4,0,0,0,60,77.957a20.827,20.827,0,0,0,9.876,1.42,17,17,0,0,0,7.3-2.022,3.82,3.82,0,0,0,2.3-4c-.154-1.435-.5-1.925-1.927-1.927q-4.788-.009-9.576,0m-11.7-57.837h-.007c0-1.792.03-3.585-.007-5.376a4.727,4.727,0,0,0-4.777-4.637A4.8,4.8,0,0,0,46.6,8.317c-.022,3.584.006,7.169-.019,10.753,0,.65.187.884.861.875,2.632-.033,5.265-.039,7.9,0,.766.012.953-.275.938-.982-.038-1.791-.013-3.584-.013-5.376" transform="translate(0 0)" fill="#fff"></path><path id="Trazado_18" data-name="Trazado 18" d="M87.083,69.016c0-1.82-.031-3.641.015-5.46a1.331,1.331,0,0,0-.974-1.508,14.04,14.04,0,0,1-4.28-2.614c-4.738-4.164-3.372-10.876.7-14.2a9.192,9.192,0,0,1,3.79-1.916.833.833,0,0,0,.76-.993,4.687,4.687,0,0,1,.086-1.168,1.7,1.7,0,0,1,1.752-1.483c.861.036,1.746.706,1.641,1.589-.191,1.6.677,1.959,1.943,2.452,3.811,1.484,5.845,4.433,6.349,8.463a4.594,4.594,0,0,1,.015.755,1.72,1.72,0,0,1-1.648,1.776,1.689,1.689,0,0,1-1.8-1.695A6.87,6.87,0,0,0,93.061,48a5.929,5.929,0,0,0-1.406-.908c-.882-.4-1.012-.324-1.013.634q-.006,4.956,0,9.912c0,.532.031,1.066-.007,1.6a.923.923,0,0,0,.73,1.054,15.265,15.265,0,0,1,2.725,1.3,9.242,9.242,0,0,1,2.887,13.815,9.406,9.406,0,0,1-5.257,3.69c-.89.237-1.2.648-1.09,1.517a2.58,2.58,0,0,1-.113.991,1.7,1.7,0,0,1-3.309-.1,6.493,6.493,0,0,1-.116-1.334.856.856,0,0,0-.726-.947,9.95,9.95,0,0,1-7.5-9.007,1.947,1.947,0,0,1,1.623-2.417c1.015-.09,1.819.723,1.9,2.018A6.368,6.368,0,0,0,86,75.358c.966.514,1.082.432,1.084-.63q0-2.856,0-5.712m3.559.777c0,1.763.011,3.525-.006,5.288-.005.542.151.7.691.5a6.694,6.694,0,0,0,4.029-6.8c-.339-2.362-1.884-3.646-3.829-4.634-.827-.42-.882-.384-.884.522-.006,1.707,0,3.413,0,5.12M87.081,52.766q0-2.6,0-5.2c0-.476-.047-.881-.709-.592a6.318,6.318,0,0,0-3.913,4.9,5.186,5.186,0,0,0,2.264,5.407c.5.362,1.034.664,1.551,1,.571.366.833.283.819-.467-.032-1.678-.01-3.357-.011-5.035" transform="translate(-65.565 -32.992)" fill="#fff"></path></g></svg>