<svg xmlns="http://www.w3.org/2000/svg" xmlns:xlink="http://www.w3.org/1999/xlink" id="Grupo_7" data-name="Grupo 7" width="79.652" height="79.732" viewBox="0 0 79.652 79.732"><defs><clipPath id="clip-path"><rect id="Rect&#xE1;ngulo_20" data-name="Rect&#xE1;ngulo 20" width="79.652" height="79.732" fill="none"></rect></clipPath></defs><g id="Grupo_6" data-name="Grupo 6" clip-path="url(#clip-path)"><path id="Trazado_4" data-name="Trazado 4" d="M38.932,0H40.8a5.539,5.539,0,0,1,2.388,1.537Q60.7,19.095,78.223,36.643a5.177,5.177,0,0,1,1.421,2.28v2.024a4.441,4.441,0,0,1-4.807,3.009c-.748-.037-1.5.017-2.249-.011-.6-.023-.821.22-.82.823q.016,15,0,30.006c0,.648.241.867.87.856,1.5-.027,3,.02,4.5-.017a2.453,2.453,0,0,1,2.509,1.455c0,.778-.014,1.556.008,2.333.007.263-.038.371-.317.318a2.086,2.086,0,0,0-.387,0H1.328C.153,78.848-.2,78.09.108,77.121c.325-1.01,1.168-1.5,2.609-1.5,1.475,0,2.951-.018,4.426.006.6.01.819-.226.818-.827q-.016-15.016,0-30.032c0-.6-.217-.84-.82-.825-1.035.025-2.071.031-3.105-.007A4.058,4.058,0,0,1,.111,40.763a4.244,4.244,0,0,1,1.354-4.084C5.266,32.9,9.025,29.07,12.85,25.312a3.254,3.254,0,0,0,1.056-2.588c-.05-4.745-.031-9.492-.017-14.238.008-2.622,1.347-4.258,3.82-4.552a19.12,19.12,0,0,1,4.571.005,3.9,3.9,0,0,1,3.71,3.739c.124,1.023.045,2.071.079,3.107.01.319-.116.669.141.966a2.046,2.046,0,0,0,.778-.642q4.756-4.752,9.5-9.517A5.641,5.641,0,0,1,38.932,0m36.3,39.8a1.462,1.462,0,0,0-.522-.752Q57.659,21.949,40.6,4.86c-.73-.731-.741-.731-1.472,0Q22.069,21.951,5.016,39.048c-.186.186-.48.322-.456.749h6.281c1.261,0,1.263,0,1.263,1.286q0,16.659,0,33.317c0,1.218,0,1.221,1.189,1.221H66.436c1.186,0,1.188,0,1.188-1.222q0-16.425,0-32.85c0-.285.025-.573,0-.856-.066-.666.188-.929.88-.907,1.345.043,2.693.012,4.04.012h2.7M18.109,13.934c0,1.71,0,3.42,0,5.131,0,.2-.074.463.128.574.236.13.362-.137.5-.27.9-.891,1.792-1.8,2.693-2.689a1.3,1.3,0,0,0,.407-.972c0-2.254-.007-4.509.006-6.763,0-.582-.228-.867-.827-.851-.62.017-1.241,0-1.862,0-.942.011-1.036.1-1.041,1.018-.009,1.606,0,3.213,0,4.82" transform="translate(-0.001)" fill="#fff"></path><path id="Trazado_5" data-name="Trazado 5" d="M147.891,256.4a5.543,5.543,0,0,1-.462-.372c-.646-.636-1.273-1.293-1.931-1.917-.357-.339-.412-.631-.013-.96.119-.1.22-.219.33-.329l30.372-30.434c.786-.788.788-.787,1.56-.016.5.494.955,1.032,1.492,1.475.637.525.583.953-.035,1.408a.52.52,0,0,0-.055.055q-15.186,15.217-30.374,30.432a1.774,1.774,0,0,1-.884.659" transform="translate(-122.6 -187.267)" fill="#fff"></path><path id="Trazado_6" data-name="Trazado 6" d="M156.64,225.022a8.031,8.031,0,1,1-16.062-.1,8.032,8.032,0,1,1,16.062.1M144.765,225a3.844,3.844,0,1,0,7.688,0,3.844,3.844,0,1,0-7.688,0" transform="translate(-118.69 -183.121)" fill="#fff"></path><path id="Trazado_7" data-name="Trazado 7" d="M284.392,352.989a8.032,8.032,0,0,1-16.063-.039,8.032,8.032,0,1,1,16.063.039m-4.187-.041a3.844,3.844,0,0,0-7.689.016,3.844,3.844,0,1,0,7.689-.016" transform="translate(-226.551 -291.191)" fill="#fff"></path></g></svg>